<mxfile host="app.diagrams.net" modified="2023-04-14T18:26:16.511Z" agent="Mozilla/5.0 (X11; Linux x86_64) AppleWebKit/537.36 (KHTML, like Gecko) Chrome/111.0.0.0 Safari/537.36" version="21.1.4" etag="GENQKBQs9gESQKtBGVWw" type="github">
  <diagram name="Page-1" id="_sfg9ShAtfJG--8N6s5Y">
    <mxGraphModel>
      <root>
        <mxCell id="0" />
        <mxCell id="1" parent="0" />
      </root>
    </mxGraphModel>
  </diagram>
</mxfile>
